<?xml version="1.0" standalone="no"?>
<!DOCTYPE svg PUBLIC "-//W3C//DTD SVG 1.1//EN" "http://www.w3.org/Graphics/SVG/1.1/DTD/svg11.dtd" >
<svg xmlns="http://www.w3.org/2000/svg" xmlns:xlink="http://www.w3.org/1999/xlink" version="1.1">
<metadata>
Created by FontForge 20170924 at Tue May 21 13:08:31 2024
 By www-data
Japan Daisuki (Sronstudio). 2024. All Rights Reserved
</metadata>
<defs>
<font id="JapanDaisuki" horiz-adv-x="1374" >
  <font-face 
    font-family="Japan Daisuki"
    font-weight="400"
    font-stretch="normal"
    units-per-em="2048"
    panose-1="2 0 6 0 0 0 0 0 0 0"
    ascent="1638"
    descent="-410"
    x-height="884"
    cap-height="1331"
    bbox="-5 -439 2105 1822"
    underline-thickness="150"
    underline-position="-217"
    unicode-range="U+001D-2265"
  />
<missing-glyph horiz-adv-x="1024" 
 />
    <glyph glyph-name=".notdef" horiz-adv-x="1024" 
 />
    <glyph glyph-name=".notdef" horiz-adv-x="1024" 
 />
    <glyph glyph-name="space" unicode=" " horiz-adv-x="700" 
 />
    <glyph glyph-name="space" unicode="&#xa0;" horiz-adv-x="700" 
 />
    <glyph glyph-name="exclam" unicode="!" horiz-adv-x="358" 
d="M293 0h-228v195l228 -6v-189zM282 346h-206l6 985h200v-985z" />
    <glyph glyph-name="quotedbl" unicode="&#x22;" horiz-adv-x="572" 
d="M236 1008h-171v326h171v-326zM507 1008h-171v326h171v-326z" />
    <glyph glyph-name="numbersign" unicode="#" horiz-adv-x="1304" 
d="M1025 0h-182v318h-382v-318h-182v318h-214v160h214v352h-214v160h214v318h182v-318h382v318h182v-318h214v-160h-214v-352h214v-160h-214v-318zM843 478v352h-382v-352h382z" />
    <glyph glyph-name="dollar" unicode="$" horiz-adv-x="1240" 
d="M700 -140h-160v171h-475v183h720c57 0 106 21 147 62s61 90 61 147v123h-928v280c0 72 18 138 53 197s83 107 142 142s124 53 196 53h84v187h160v-187h446v-183h-690c-57 0 -106 -20 -147 -61s-61 -91 -61 -148v-96h927v-307c0 -72 -17 -138 -52 -197s-83 -107 -142 -142
s-125 -53 -196 -53h-85v-171z" />
    <glyph glyph-name="percent" unicode="%" horiz-adv-x="1669" 
d="M641 0h-188l575 1331l184 -8zM525 590h-333c-36 0 -66 14 -90 42c-25 27 -37 59 -37 96v465c0 37 12 69 37 97c24 27 54 41 90 41h333c36 0 66 -14 91 -41c24 -28 36 -60 36 -97v-465c0 -37 -12 -69 -36 -96c-25 -28 -55 -42 -91 -42zM481 775v371h-245v-371h245zM1477 0
h-333c-37 0 -67 14 -91 42c-24 27 -36 59 -36 96v465c0 37 12 69 36 97c24 27 54 41 91 41h333c36 0 66 -14 91 -41c24 -28 36 -60 36 -97v-465c0 -37 -12 -69 -36 -96c-25 -28 -55 -42 -91 -42zM1433 185v371h-245v-371h245z" />
    <glyph glyph-name="ampersand" unicode="&#x26;" horiz-adv-x="1361" 
d="M1166 0h-669c-79 0 -152 20 -217 59s-117 92 -156 158c-39 65 -59 138 -59 217v338h201c-48 73 -72 153 -72 240v307h851v-194h-658v-113c0 -66 24 -122 71 -169s103 -71 168 -71h346v155h194v-155h130v-194h-130v-578zM972 195v383h-713v-144c0 -66 23 -122 70 -169
s103 -70 168 -70h475z" />
    <glyph glyph-name="quotesingle" unicode="'" horiz-adv-x="301" 
d="M236 1008h-171v326h171v-326z" />
    <glyph glyph-name="parenleft" unicode="(" horiz-adv-x="626" 
d="M421 -208l-66 70c-97 102 -169 219 -217 351c-49 131 -73 267 -73 406s24 274 73 406c48 131 120 248 217 351l66 70l140 -134l-67 -71c-79 -83 -138 -178 -177 -287s-59 -220 -59 -335s20 -226 59 -335s98 -205 177 -288l67 -70z" />
    <glyph glyph-name="parenright" unicode=")" horiz-adv-x="626" 
d="M205 -208l-140 134l68 70c78 83 137 179 176 288s59 220 59 335s-20 226 -59 335s-98 204 -176 287l-68 71l140 134l67 -70c96 -103 168 -220 217 -351c48 -132 72 -267 72 -406s-24 -274 -72 -405c-49 -132 -121 -249 -217 -352z" />
    <glyph glyph-name="asterisk" unicode="*" horiz-adv-x="647" 
d="M481 890l-55 41c-45 33 -79 76 -104 127c-20 -39 -41 -68 -62 -89s-48 -43 -80 -66l-18 -13l-80 110l55 41c21 17 38 36 53 59l-125 52l52 127l118 -49c3 33 5 66 5 99v48h163v-50c0 -32 2 -65 6 -99l121 51l52 -127l-128 -53c14 -23 31 -42 52 -58l55 -41z" />
    <glyph glyph-name="plus" unicode="+" horiz-adv-x="853" 
d="M512 247h-171v266h-276v183h276v266h171v-266h276v-183h-276v-266z" />
    <glyph glyph-name="comma" unicode="," horiz-adv-x="386" 
d="M169 -245l-74 97c25 13 47 30 66 52c18 22 27 44 27 65v32h-123v193l256 -5v-200c0 -98 -51 -176 -152 -234z" />
    <glyph glyph-name="hyphen" unicode="-" horiz-adv-x="733" 
d="M668 382h-603v183h603v-183z" />
    <glyph glyph-name="hyphen" unicode="&#xad;" horiz-adv-x="733" 
d="M668 382h-603v183h603v-183z" />
    <glyph glyph-name="period" unicode="." horiz-adv-x="359" 
d="M294 0h-229v195l229 -6v-189z" />
    <glyph glyph-name="slash" unicode="/" horiz-adv-x="784" 
d="M267 0h-202l454 1331l200 -8z" />
    <glyph glyph-name="zero" unicode="0" horiz-adv-x="1196" 
d="M697 0h-198c-79 0 -152 20 -218 59s-118 92 -157 158s-59 139 -59 220v446c0 80 20 153 59 219s91 119 157 158s139 59 218 59h198c79 0 152 -20 218 -59s119 -92 158 -158s58 -139 58 -219v-446c0 -81 -19 -154 -58 -220s-92 -119 -158 -158s-139 -59 -218 -59zM697 195
c66 0 123 24 170 71s71 104 71 171v446c0 67 -24 124 -71 171s-104 71 -170 71h-198c-66 0 -123 -24 -170 -71s-71 -104 -71 -171v-446c0 -67 24 -124 71 -171s104 -71 170 -71h198z" />
    <glyph glyph-name="one" unicode="1" horiz-adv-x="690" 
d="M557 2h-194v960c-27 -9 -56 -14 -85 -14h-213v183h213c17 0 36 5 56 16c19 10 29 24 29 43v129h194v-1317z" />
    <glyph glyph-name="two" unicode="2" horiz-adv-x="1131" 
d="M1066 0h-1001v364c0 121 33 212 100 272c66 60 158 90 275 90h399v160c0 65 -23 122 -70 169s-103 70 -168 70h-478v194h478c79 0 152 -19 217 -58s118 -92 157 -157c39 -66 58 -139 58 -218v-354h-593c-66 0 -114 -13 -143 -38c-26 -25 -39 -69 -39 -130v-169h808v-195z
" />
    <glyph glyph-name="three" unicode="3" horiz-adv-x="1110" 
d="M613 0h-548v195h548c65 0 121 23 168 70s70 103 70 169v201h-506v194h202s123 24 170 71s70 103 70 168v57h-707v194h901v-251c0 -86 -24 -166 -73 -239h137v-395c0 -79 -19 -152 -58 -217c-39 -66 -92 -119 -157 -158s-138 -59 -217 -59z" />
    <glyph glyph-name="four" unicode="4" horiz-adv-x="1171" 
d="M966 0h-194v324h-275c-79 0 -152 20 -217 59c-66 39 -118 92 -157 158c-39 65 -58 138 -58 217v561h193v-561c0 -65 23 -121 70 -168s103 -71 169 -71h275v800h194v-800h140v-195h-140v-324z" />
    <glyph glyph-name="five" unicode="5" horiz-adv-x="1112" 
d="M615 0h-550v195h550c65 0 121 23 168 70s70 103 70 169v206h-765l1 679h915v-194h-722l-1 -291h766v-400c0 -79 -19 -152 -58 -217c-39 -66 -92 -119 -157 -158s-138 -59 -217 -59z" />
    <glyph glyph-name="six" unicode="6" horiz-adv-x="1031" 
d="M534 0h-469v886c0 79 20 152 59 218c39 65 91 118 156 157s138 58 217 58h421v-194h-421c-65 0 -121 -23 -168 -70s-70 -104 -70 -169v-56h707v-396c0 -79 -19 -152 -58 -217c-39 -66 -92 -119 -157 -158s-138 -59 -217 -59zM534 195c65 0 122 23 169 70s70 103 70 169
v201h-514v-440h275z" />
    <glyph glyph-name="seven" unicode="7" horiz-adv-x="1082" 
d="M503 -5h-218l310 600h-353v183h448l133 257v90h-758v194h952v-331l-109 -210h109v-183h-204z" />
    <glyph glyph-name="eight" unicode="8" horiz-adv-x="1197" 
d="M795 0h-393c-93 0 -172 33 -238 100c-66 66 -99 146 -99 239v141c0 57 13 110 40 159c26 49 62 89 109 121c-34 52 -51 108 -51 169v85c0 84 30 156 89 216c59 59 131 89 215 89h264c83 0 155 -30 215 -89c59 -60 89 -132 89 -216v-85c0 -61 -17 -117 -51 -169
c46 -32 82 -72 109 -121c26 -49 39 -102 39 -159v-141c0 -93 -33 -173 -99 -239c-66 -67 -145 -100 -238 -100zM795 195c39 0 73 14 101 42s42 62 42 102v141c0 39 -14 73 -42 101s-62 42 -101 42h-393c-39 0 -73 -14 -101 -42s-42 -62 -42 -101v-141c0 -40 14 -74 42 -102
s62 -42 101 -42h393zM731 818c30 0 56 11 78 33c21 21 32 47 32 78v85c0 31 -11 57 -32 79c-22 21 -48 32 -78 32h-264c-30 0 -56 -11 -78 -32c-22 -22 -33 -48 -33 -79v-85c0 -31 11 -57 33 -78c22 -22 48 -33 78 -33h264z" />
    <glyph glyph-name="nine" unicode="9" horiz-adv-x="1031" 
d="M534 0h-421v195h421c65 0 121 23 168 70s70 103 70 169v56h-275c-79 0 -152 20 -217 59s-117 91 -156 157c-39 65 -59 138 -59 218v395h901v-885c0 -79 -19 -152 -58 -217c-39 -66 -92 -119 -157 -158s-138 -59 -217 -59zM772 684v441h-513v-201c0 -66 23 -122 70 -169
s103 -71 168 -71h275z" />
    <glyph glyph-name="colon" unicode=":" horiz-adv-x="359" 
d="M294 0h-229v194l229 -5v-189zM294 644h-229v194h229v-194z" />
    <glyph glyph-name="semicolon" unicode=";" horiz-adv-x="386" 
d="M169 -245l-74 97c25 13 47 30 66 52c18 22 27 44 27 65v32h-123v193l256 -5v-200c0 -98 -51 -176 -152 -234zM294 644h-229v194h229v-194z" />
    <glyph glyph-name="less" unicode="&#x3c;" horiz-adv-x="849" 
d="M784 189l-719 291l3 250l716 290v-193l-550 -223l550 -222v-193z" />
    <glyph glyph-name="equal" unicode="=" horiz-adv-x="853" 
d="M788 339l-723 6v178h723v-184zM788 686l-723 6v178h723v-184z" />
    <glyph glyph-name="greater" unicode="&#x3e;" horiz-adv-x="849" 
d="M65 189v193l549 222l-549 223v193l719 -291v-249z" />
    <glyph glyph-name="question" unicode="?" horiz-adv-x="1041" 
d="M503 0h-228v195l228 -6v-189zM486 351h-194v203c0 63 22 118 67 163s99 67 162 67h261v102c0 65 -23 122 -70 169s-103 70 -168 70h-479v194h479c79 0 151 -19 217 -58c65 -39 118 -92 157 -157c39 -66 58 -139 58 -218v-297h-455c-10 0 -18 -3 -25 -10s-10 -16 -10 -25
v-203z" />
    <glyph glyph-name="at" unicode="@" horiz-adv-x="1523" 
d="M1458 0h-1077v488c0 74 18 142 55 203c36 61 85 109 146 146s128 55 201 55h358v-184h-358c-60 0 -111 -21 -154 -64s-65 -95 -65 -156v-305h395v400h182v-400h135v846h-608c-77 0 -148 -19 -211 -57c-64 -38 -115 -89 -153 -153s-57 -135 -57 -213v-606h-182v606
c0 111 27 213 82 305c54 91 127 164 218 219s192 82 303 82h790v-1212z" />
    <glyph glyph-name="bracketleft" unicode="[" horiz-adv-x="546" 
d="M481 -163h-416v1563h416v-183h-234v-1197h234v-183z" />
    <glyph glyph-name="backslash" unicode="\" horiz-adv-x="787" 
d="M722 0h-202l-455 1331h203z" />
    <glyph glyph-name="bracketright" unicode="]" horiz-adv-x="546" 
d="M481 -163h-416v183h234v1197h-234v183h416v-1563z" />
    <glyph glyph-name="asciicircum" unicode="^" horiz-adv-x="739" 
d="M581 905c-46 33 -86 65 -119 97c-34 31 -65 72 -93 123c-27 -51 -58 -92 -91 -123c-34 -32 -74 -64 -120 -97l-93 127c41 29 78 60 109 91s56 65 74 104c18 38 27 84 27 137h189v-6c0 -52 10 -97 29 -135c19 -39 44 -73 76 -104c31 -31 66 -60 105 -87z" />
    <glyph glyph-name="underscore" unicode="_" horiz-adv-x="958" 
d="M893 -224h-828v183h828v-183z" />
    <glyph glyph-name="grave" unicode="`" horiz-adv-x="509" 
d="M306 944l-241 334l138 100l241 -334z" />
    <glyph glyph-name="acute" unicode="&#xb4;" horiz-adv-x="508" 
d="M203 944l-138 100l240 334l138 -100z" />
    <glyph glyph-name="A" unicode="A" 
d="M1309 0h-205v502h-668v-502h-205v502h-164v200h164v423h-166v206h1244v-1331zM1104 702v423h-668v-423h668z" />
    <glyph glyph-name="B" unicode="B" horiz-adv-x="1408" 
d="M906 0h-401v206h401c63 0 118 23 164 69c45 45 68 100 68 165v141h-701l-6 -581h-200v581h-163v200h163v344h-166v206h1150v-314c0 -85 -23 -163 -69 -236h197v-341c0 -81 -20 -154 -59 -221s-92 -120 -158 -159c-67 -40 -140 -60 -220 -60zM777 781c64 0 119 23 165 69
c45 45 68 100 68 164v111h-573v-344h340z" />
    <glyph glyph-name="C" unicode="C" horiz-adv-x="1420" 
d="M1355 0h-536c-109 0 -209 27 -300 82c-91 54 -163 126 -217 217s-81 191 -81 302v524h-156v206h1264v-206h-903v-524c0 -73 18 -139 54 -198c35 -60 83 -108 142 -143c59 -36 125 -54 197 -54h536v-206z" />
    <glyph glyph-name="D" unicode="D" horiz-adv-x="1409" 
d="M746 0h-219v206h219c72 0 138 18 197 54c59 35 107 83 143 143c35 59 53 125 53 198v524h-702v-1125h-205v1125h-167v206h1279v-730c0 -111 -27 -211 -81 -302s-126 -163 -216 -217c-91 -55 -191 -82 -301 -82z" />
    <glyph glyph-name="E" unicode="E" horiz-adv-x="1324" 
d="M1259 0h-437c-107 0 -205 26 -294 78s-161 122 -215 209s-84 185 -89 294h-156v200h156v344h-159v206h1194v-206h-830v-344h751v-200h-750c4 -71 24 -134 60 -190c35 -56 82 -101 141 -134c58 -34 122 -51 191 -51h437v-206z" />
    <glyph glyph-name="F" unicode="F" horiz-adv-x="1258" 
d="M437 0h-205v502h-160v200h160v423h-167v206h1128v-206h-756v-423h665v-200h-665v-502z" />
    <glyph glyph-name="G" unicode="G" horiz-adv-x="1508" 
d="M1344 0h-675c-80 0 -153 20 -219 60c-67 39 -120 92 -159 159s-59 140 -59 221v685h-167v206h1226v-206h-854v-685c0 -65 23 -120 69 -165c45 -46 100 -69 163 -69h469v355c-79 -27 -163 -41 -253 -41h-100v201h100c133 0 236 34 310 101c15 15 25 26 31 34l63 77
l154 -125c-29 -43 -62 -83 -99 -120v-688z" />
    <glyph glyph-name="H" unicode="H" horiz-adv-x="1375" 
d="M1310 0h-205v581h-668v-581h-205v581h-167v200h167v550h205v-550h668v550h205v-1331z" />
    <glyph glyph-name="I" unicode="I" horiz-adv-x="955" 
d="M890 0h-825v206h310v919h-310v206h825v-206h-310v-919h310v-206z" />
    <glyph glyph-name="J" unicode="J" horiz-adv-x="1090" 
d="M587 0h-522v206h522c64 0 119 23 164 69c45 45 68 100 68 165v685h-672v206h672v97h206v-988c0 -81 -20 -154 -59 -221c-40 -67 -93 -120 -159 -159c-67 -40 -140 -60 -220 -60z" />
    <glyph glyph-name="K" unicode="K" horiz-adv-x="1408" 
d="M1343 0h-205v316c0 64 -23 119 -68 165c-46 46 -101 69 -165 69h-469v-550h-205v550h-166v206h166v575h205v-575h409c64 0 119 23 165 69c45 45 68 100 68 164v342h205v-342c0 -118 -43 -222 -129 -311c59 -42 106 -95 139 -158s50 -131 50 -204v-316z" />
    <glyph glyph-name="L" unicode="L" horiz-adv-x="1192" 
d="M1172 0h-1107v206h136v1125h205v-1125h766v-206z" />
    <glyph glyph-name="M" unicode="M" horiz-adv-x="1672" 
d="M148 -282l-118 169l84 59c23 15 43 32 61 50s32 41 43 68c10 27 15 64 15 110v951h-167v206h541l317 -379l318 379h365v-1331h-205v1125h-66l-309 -369v-496h-205v496l-309 369h-75v-951c0 -145 -46 -259 -139 -343c-23 -21 -46 -38 -68 -53z" />
    <glyph glyph-name="N" unicode="N" horiz-adv-x="1445" 
d="M148 -282l-118 169l84 59c23 16 44 33 62 51c17 18 31 41 42 68c10 27 15 64 15 109v951h-167v206h541l567 -677l6 677h200v-1331h-206v336l-661 789h-75v-951c0 -145 -46 -259 -139 -343c-23 -21 -45 -38 -68 -53z" />
    <glyph glyph-name="O" unicode="O" horiz-adv-x="1340" 
d="M801 562h-262v206l262 -5v-201zM1275 0h-1210v1331h1210v-1331zM1070 206v919h-800v-919h800z" />
    <glyph glyph-name="P" unicode="P" horiz-adv-x="1320" 
d="M437 0h-205v452h-167v206h167v467h-167v206h1190v-439c0 -81 -20 -154 -59 -221s-92 -120 -158 -159c-67 -40 -140 -60 -221 -60h-380v-452zM817 658c64 0 119 23 165 69c45 46 68 101 68 165v233h-613v-467h380z" />
    <glyph glyph-name="Q" unicode="Q" horiz-adv-x="1340" 
d="M1029 -315h-100c-89 0 -167 30 -232 90c-66 59 -105 134 -116 225h-516v1331h1210v-1331h-492c9 -34 28 -61 55 -82s57 -32 91 -32h100v-201zM1070 206v919h-800v-919h309v559h199v-559h292z" />
    <glyph glyph-name="R" unicode="R" horiz-adv-x="1362" 
d="M1297 0h-56c-95 0 -184 22 -265 65s-149 101 -202 175c-54 74 -89 158 -104 253h-233v-493h-205v493h-167v206h167v426h-167v206h1190v-399c0 -108 -35 -202 -104 -283s-158 -132 -266 -151c21 -83 65 -151 131 -204c65 -53 140 -80 225 -80h56v-214zM817 699
c64 0 119 23 165 69c45 45 68 100 68 164v193h-613v-426h380z" />
    <glyph glyph-name="S" unicode="S" 
d="M1023 0h-958v207h958c22 0 41 8 57 24c15 16 23 35 23 57v293h-1035v200h116c33 0 62 12 86 36c23 24 35 53 35 86v524h207v-97h749v-206h-749v-216c0 -45 -9 -87 -26 -127h823v-493c0 -79 -28 -147 -84 -203c-56 -57 -123 -85 -202 -85z" />
    <glyph glyph-name="T" unicode="T" horiz-adv-x="1363" 
d="M831 0h-206v1125h-257l-217 -258l-156 132l278 332h1040v-206h-482v-1125z" />
    <glyph glyph-name="U" unicode="U" horiz-adv-x="1513" 
d="M1448 0l-1383 6v200h135v1125h205v-1125h703v1125h205v-1125h135v-206z" />
    <glyph glyph-name="V" unicode="V" horiz-adv-x="1233" 
d="M570 0h-505v1331h205v-1125h300c72 0 138 18 197 54c59 35 107 83 143 143c35 59 53 125 53 198v730h205v-730c0 -111 -27 -211 -81 -302s-126 -163 -217 -217c-91 -55 -191 -82 -300 -82z" />
    <glyph glyph-name="W" unicode="W" horiz-adv-x="1728" 
d="M1663 0h-303c-100 0 -193 24 -280 71s-159 111 -216 194c-57 -83 -128 -147 -215 -194s-180 -71 -280 -71h-304v1331h205v-1125h99c72 0 138 18 197 54c59 35 107 83 143 143c35 59 53 125 53 198v706h205v-706c0 -73 18 -139 53 -198c35 -60 83 -108 143 -143
c59 -36 125 -54 197 -54h98v1125h205v-1331z" />
    <glyph glyph-name="X" unicode="X" horiz-adv-x="1349" 
d="M1284 0h-205v321c0 64 -23 119 -68 165c-46 45 -101 68 -164 68h-345c-63 0 -118 -23 -163 -68c-46 -46 -69 -101 -69 -165v-321h-205v316c0 73 17 141 50 204s80 116 139 158c-86 89 -129 193 -129 311v342h205v-343c0 -64 23 -119 69 -164c45 -46 100 -69 164 -69h223
c64 0 119 23 165 69c45 45 68 100 68 164v343h205v-342c0 -118 -43 -222 -129 -311c59 -42 106 -95 139 -158s50 -131 50 -204v-316z" />
    <glyph glyph-name="Y" unicode="Y" horiz-adv-x="1222" 
d="M708 0h-200v443c-85 0 -160 21 -227 62s-120 95 -158 162c-39 67 -58 139 -58 217v446h194v-446c0 -69 24 -128 73 -175s107 -71 176 -71v190h206v-190c71 0 131 24 178 73s71 106 71 173v446h194v-446c0 -82 -20 -156 -60 -223s-93 -120 -160 -159s-142 -59 -223 -59z
" />
    <glyph glyph-name="Z" unicode="Z" horiz-adv-x="1292" 
d="M1227 0h-1162v188l379 444l-59 1h-81v200h69c38 0 75 -1 111 -3c35 -3 73 -9 113 -19l268 314h-743v205h1044v-169l-374 -437c31 -23 59 -47 83 -72c23 -26 46 -53 67 -81l19 -24l-153 -127l-24 30c-33 47 -74 88 -122 121l-312 -365h877v-206z" />
    <glyph glyph-name="a" unicode="a" horiz-adv-x="1021" 
d="M956 0h-193v392h-418c-24 0 -44 -8 -61 -25s-26 -38 -26 -62v-110h433v-195h-626v305c0 77 27 144 82 199s121 82 198 82h418v105h-648v193h841v-884z" />
    <glyph glyph-name="b" unicode="b" horiz-adv-x="1022" 
d="M520 0h-455v195h455c67 0 124 24 172 72c47 47 71 105 71 172v251h-504v-423h-194v1089h194v-472h698v-445c0 -81 -20 -154 -59 -220c-39 -67 -92 -120 -158 -159c-67 -40 -140 -60 -220 -60z" />
    <glyph glyph-name="c" unicode="c" horiz-adv-x="1040" 
d="M726 345h-229v195h229v-195zM975 0h-474c-80 0 -153 20 -219 60c-66 39 -119 92 -158 159c-39 66 -59 139 -59 220v446h892v-195h-698v-251c0 -67 24 -125 71 -172c47 -48 104 -72 171 -72h474v-195z" />
    <glyph glyph-name="d" unicode="d" horiz-adv-x="1065" 
d="M1000 0h-194v690h-57c-60 0 -124 -17 -191 -50c-87 -44 -154 -104 -203 -181s-80 -165 -91 -264h471v-195h-670v98c0 115 19 224 56 325s96 190 175 267h-229v195h739v471h194v-1356z" />
    <glyph glyph-name="e" unicode="e" horiz-adv-x="1022" 
d="M921 0h-419c-80 0 -153 20 -219 60c-67 39 -120 92 -159 159c-39 66 -59 139 -59 220v446h892v-259c0 -77 -27 -143 -82 -198s-121 -83 -198 -83h-320v195h320c23 0 44 9 61 26s25 37 25 60v64h-504v-251c0 -67 24 -125 72 -172c47 -48 104 -72 171 -72h419v-195z" />
    <glyph glyph-name="f" unicode="f" horiz-adv-x="1223" 
d="M176 -437l-111 159l79 56c23 16 44 33 63 52c18 18 32 41 43 69s16 65 16 111v680h-188v194l188 11v98h194v-109h698v-194h-698v-296h581v-194h-581v-190c0 -143 -46 -255 -137 -338c-34 -29 -73 -59 -117 -88z" />
    <glyph glyph-name="g" unicode="g" horiz-adv-x="1021" 
d="M956 -326h-775v195h581v131h-697v446c0 81 20 154 59 221c39 66 92 119 158 159c66 39 139 59 219 59h455v-195h-455c-67 0 -124 -24 -171 -71c-48 -48 -72 -106 -72 -173v-251h504v352h194v-873z" />
    <glyph glyph-name="h" unicode="h" horiz-adv-x="1182" 
d="M136 -281l-111 159l79 56c23 15 44 32 63 51c18 19 32 42 43 70c10 28 15 65 15 111v524h-187v194h187v472h194v-472h698v-886h-194v692h-504v-524c0 -143 -46 -256 -137 -339c-24 -21 -65 -52 -123 -92z" />
    <glyph glyph-name="i" unicode="i" horiz-adv-x="720" 
d="M477 1154h-228v202h228v-202zM655 1h-584v194h195v516c-45 -6 -91 -9 -136 -9h-65v183h91c110 0 191 32 244 95l58 72l140 -116c-37 -58 -83 -107 -138 -147v-594h195v-194z" />
    <glyph glyph-name="j" unicode="j" horiz-adv-x="664" 
d="M178 -439l-112 160c27 18 53 36 80 55s50 38 69 58c35 38 52 96 52 175v702c-45 -6 -90 -9 -136 -9h-66v183h92c110 0 191 32 244 95l57 72l141 -116c-37 -58 -83 -107 -138 -147v-780c0 -143 -46 -256 -137 -339c-27 -23 -57 -46 -89 -67c-21 -15 -40 -29 -57 -42z
M478 1154h-229v202h229v-202z" />
    <glyph glyph-name="k" unicode="k" horiz-adv-x="1169" 
d="M136 -281l-111 159l79 56c23 15 44 32 63 51c18 19 32 42 43 70c10 28 15 65 15 111v213h-188v195h188v782h194v-782h342l174 316l169 -94l-149 -270c44 -29 79 -66 104 -111s37 -94 37 -147v-270h-194v270c0 31 -11 57 -33 79c-22 21 -48 32 -78 32h-372v-213
c0 -143 -46 -256 -137 -339c-29 -25 -77 -61 -146 -108z" />
    <glyph glyph-name="l" unicode="l" horiz-adv-x="324" 
d="M259 0h-194v1356h194v-1356z" />
    <glyph glyph-name="m" unicode="m" horiz-adv-x="1608" 
d="M717 -224l-111 158l79 56c23 16 44 33 63 52c18 18 32 41 43 69s16 65 16 112v467h-360v-404c0 -79 -28 -146 -84 -202s-123 -84 -201 -84h-97v195h97c25 0 46 9 64 27s27 39 27 64v404h-188v194h188v109h194v-109h1096v-884h-194v690h-349v-467
c0 -143 -46 -256 -137 -339c-29 -26 -77 -62 -146 -108z" />
    <glyph glyph-name="n" unicode="n" horiz-adv-x="1209" 
d="M1144 0h-193v690h-505v-404c0 -79 -28 -146 -83 -202c-56 -56 -123 -84 -201 -84h-97v195h97c25 0 46 9 64 27s27 39 27 64v404h-188v194h188v109h193v-109h698v-884z" />
    <glyph glyph-name="o" unicode="o" horiz-adv-x="1057" 
d="M643 345h-229v195h229v-195zM992 0h-927v884h927v-884zM798 195v495h-540v-495h540z" />
    <glyph glyph-name="p" unicode="p" horiz-adv-x="1210" 
d="M162 -399h-97v195h97c25 0 46 9 64 27s27 39 27 64v803h-188v194h188v109h194v-109h698v-445c0 -81 -20 -154 -59 -220c-39 -67 -92 -120 -158 -159c-67 -40 -140 -60 -220 -60l-190 6v189h190c67 0 124 24 172 72c47 47 71 105 71 172v251h-504v-803
c0 -79 -28 -146 -83 -202c-56 -56 -123 -84 -202 -84z" />
    <glyph glyph-name="q" unicode="q" horiz-adv-x="1097" 
d="M1145 -399h-97c-78 0 -145 28 -201 84s-84 123 -84 202v803h-504v-252c0 -67 24 -124 72 -172c47 -48 104 -72 171 -72h190v-194h-190c-80 0 -153 20 -219 60c-67 39 -120 92 -159 159c-39 66 -59 139 -59 219v446h892v-997c0 -25 9 -46 27 -64s39 -27 64 -27h97v-195z
" />
    <glyph glyph-name="r" unicode="r" horiz-adv-x="1090" 
d="M162 0h-97v195h97c25 0 46 9 64 27s27 39 27 64v404h-188v194h676c78 0 145 -28 201 -83c55 -56 83 -124 83 -203v-97h-193v97c0 25 -9 47 -27 65s-39 27 -64 27h-295v-404c0 -79 -28 -146 -83 -202c-56 -56 -123 -84 -201 -84z" />
    <glyph glyph-name="s" unicode="s" horiz-adv-x="1124" 
d="M790 1c-242 0 -484 2 -725 5v189h725c21 0 39 8 54 23s22 32 22 53v75h-801v195h134c25 0 47 9 65 27s27 39 27 64v361h193v-108h530v-195h-530l1 -45c0 -35 -5 -69 -16 -104h590v-270c0 -75 -26 -138 -79 -191s-116 -79 -190 -79z" />
    <glyph glyph-name="t" unicode="t" horiz-adv-x="868" 
d="M498 -226l-80 55c-136 87 -204 217 -204 392v469h-164v194h164v295h194v-295h395v-194h-395v-469c0 -65 13 -116 38 -155c23 -31 51 -57 84 -78l79 -56z" />
    <glyph glyph-name="u" unicode="u" horiz-adv-x="1218" 
d="M1117 0h-1052v884h193v-689h501v353c0 143 46 255 137 338c34 29 73 59 116 88l30 21l111 -159l-79 -56c-23 -16 -44 -33 -62 -51c-18 -19 -32 -42 -43 -70s-16 -65 -16 -111v-353h164v-195z" />
    <glyph glyph-name="v" unicode="v" horiz-adv-x="1120" 
d="M440 0h-375v884h194v-689h181c205 0 336 74 393 223c19 54 28 110 28 167v299h194v-299c0 -77 -12 -150 -35 -220c-24 -71 -61 -133 -110 -188c-107 -118 -264 -177 -470 -177z" />
    <glyph glyph-name="w" unicode="w" horiz-adv-x="1404" 
d="M1339 0h-367c-104 0 -194 40 -270 120c-76 -80 -166 -120 -270 -120h-367v884h193v-689h174c48 0 89 17 122 50s50 75 51 124v388h194v-388c0 -48 17 -89 51 -123c33 -34 74 -51 122 -51h173v689h194v-884z" />
    <glyph glyph-name="x" unicode="x" horiz-adv-x="1119" 
d="M1054 0h-193v97c0 68 -24 126 -72 175c-49 49 -107 73 -175 73h-109c-68 0 -126 -24 -174 -73c-49 -49 -73 -107 -73 -175v-97h-193v97c0 136 55 251 165 345c-110 95 -165 210 -165 345v97h193v-97c0 -68 24 -126 73 -174c48 -49 106 -73 174 -73h109
c68 0 126 24 175 73c48 48 72 106 72 174v97h193v-97c0 -135 -55 -250 -165 -345c110 -94 165 -209 165 -345v-97z" />
    <glyph glyph-name="y" unicode="y" horiz-adv-x="1120" 
d="M657 -435h-194v435h-398v884h194v-689h204v200h194v-200h129c21 0 38 8 53 23s22 32 22 53v613h194v-613c0 -75 -26 -138 -79 -191s-116 -80 -190 -80h-129v-435z" />
    <glyph glyph-name="z" unicode="z" horiz-adv-x="1124" 
d="M1059 0h-994v181l658 510h-627v193h926v-207l-623 -482h660v-195z" />
    <glyph glyph-name="braceleft" unicode="{" horiz-adv-x="694" 
d="M629 -163h-182c-61 0 -113 23 -154 70s-62 100 -62 160v367c0 22 -7 43 -20 63s-32 30 -55 30h-91v183h91c23 0 42 10 55 30s20 41 20 64v366c0 61 21 114 62 161c41 46 93 69 154 69h182v-183h-182c-9 0 -16 -5 -23 -14s-10 -20 -10 -33v-366c0 -68 -22 -130 -67 -185
c45 -55 67 -117 67 -185v-367c0 -10 3 -20 9 -31c5 -11 13 -16 24 -16h182v-183z" />
    <glyph glyph-name="bar" unicode="|" horiz-adv-x="312" 
d="M247 -244h-182v1586h182v-1586z" />
    <glyph glyph-name="braceright" unicode="}" horiz-adv-x="695" 
d="M247 -163h-182v183h182c11 0 19 5 25 16s9 21 9 31v367c0 68 22 130 66 185c-44 55 -66 117 -66 185v366c0 13 -3 24 -10 33s-15 14 -24 14h-182v183h182c61 0 113 -23 154 -69c41 -47 62 -100 62 -161v-366c0 -23 7 -44 20 -64s32 -30 55 -30h92v-183h-92
c-23 0 -42 -10 -55 -30s-20 -41 -20 -63v-367c0 -60 -21 -113 -62 -160s-93 -70 -154 -70z" />
    <glyph glyph-name="asciitilde" unicode="~" horiz-adv-x="879" 
d="M217 370h-152c0 37 2 74 7 109s15 69 32 103c20 39 45 68 75 88s63 30 99 30c33 0 68 -9 104 -26c18 -9 40 -22 65 -37s50 -29 74 -41c24 -13 43 -20 57 -22h7c24 0 42 8 53 23s18 34 21 55s4 41 4 60h151c0 -39 -3 -78 -9 -117c-7 -39 -18 -75 -35 -107s-41 -57 -71 -76
c-28 -16 -58 -24 -91 -24c-56 0 -118 21 -187 63c-27 16 -50 29 -70 40c-26 13 -50 19 -71 19c-7 0 -13 -1 -19 -3c-21 -9 -33 -28 -37 -57c-5 -29 -7 -54 -7 -75v-5z" />
    <glyph glyph-name="exclamdown" unicode="&#xa1;" horiz-adv-x="359" 
d="M294 726h-229v195l229 -6v-189zM282 -435h-205v1010h205v-1010z" />
    <glyph glyph-name="cent" unicode="&#xa2;" horiz-adv-x="1141" 
d="M650 -140h-159v260c-126 28 -228 91 -307 188s-119 209 -119 336v512h426v249h159v-249h403v-183h-806v-329c0 -64 16 -123 48 -176c31 -53 74 -96 127 -128s112 -48 176 -48h478v-183h-426v-249z" />
    <glyph glyph-name="sterling" unicode="&#xa3;" horiz-adv-x="1281" 
d="M1216 0h-1151v183h163v348h-152v161h152v80c0 99 24 189 72 270s113 145 194 194c81 48 170 72 267 72l329 -6v-340h-182v163h-147c-64 0 -123 -16 -176 -48s-96 -75 -127 -128c-32 -53 -48 -112 -48 -177v-80h538v-161h-538v-348h806v-183z" />
    <glyph glyph-name="lira" unicode="&#x20a4;" horiz-adv-x="1280" 
d="M1215 0h-1150v183h163v209h-152v160h152v119h-152v160h155c11 91 41 172 90 244c49 71 112 128 189 170s160 63 251 63h329v-346h-182v163h-147c-85 0 -160 -27 -225 -82s-105 -126 -121 -212h533v-160h-538v-119h538v-160h-538v-209h805v-183z" />
    <glyph glyph-name="franc" unicode="&#x20a3;" horiz-adv-x="1235" 
d="M414 0h-182v166h-156v160h156v805h-167v183h1105v-183h-756v-380h668v-183h-668v-242h293v-160h-293v-166z" />
    <glyph glyph-name="Euro" unicode="&#x20ac;" horiz-adv-x="1222" 
d="M1157 0h-387c-120 0 -227 36 -321 109c-94 72 -158 166 -193 283h-191v160h171v119h-171v160h175c11 91 41 172 90 244c49 71 112 128 189 170s160 63 251 63h387v-183h-387c-85 0 -160 -27 -225 -82s-105 -126 -121 -212h513v-160h-518v-119h518v-160h-487
c29 -64 73 -115 130 -152c57 -38 121 -57 190 -57h387v-183z" />
    <glyph glyph-name="yen" unicode="&#xa5;" horiz-adv-x="1222" 
d="M714 0h-205v144h-334v160h334v84h-334v161h190c-90 31 -162 85 -217 161s-83 162 -83 257v358h194v-358c0 -68 24 -126 73 -174c48 -49 106 -73 173 -73h213c67 0 125 24 173 73c48 48 72 106 72 174v358h194v-358c0 -95 -27 -181 -82 -257s-128 -130 -218 -161h190v-161
h-333v-84h333v-160h-333v-144z" />
    <glyph glyph-name="germandbls" unicode="&#xdf;" horiz-adv-x="1242" 
d="M740 0h-329v206h329c63 0 118 23 164 69c45 45 68 100 68 165v138h-537v206h176c64 0 119 23 164 69c45 45 68 100 68 164v108h-340c-64 0 -119 -23 -164 -69s-68 -101 -68 -166v-890h-206v891c0 81 20 154 60 221c39 67 92 120 159 160c66 39 139 59 219 59h546v-314
c0 -83 -23 -161 -68 -233h196v-344c0 -81 -20 -154 -59 -221s-92 -120 -158 -159c-67 -40 -140 -60 -220 -60z" />
    <glyph glyph-name="Thorn" unicode="&#xde;" horiz-adv-x="1320" 
d="M437 -6h-205v218h-167v206h167v466h-167v206h167v241h205v-241h818v-439c0 -81 -20 -154 -59 -220c-40 -67 -93 -120 -159 -159c-66 -40 -139 -60 -220 -60h-380v-218zM817 418c64 0 119 23 165 69c45 45 68 100 68 164v233h-613v-466h380z" />
    <glyph glyph-name="thorn" unicode="&#xfe;" horiz-adv-x="1210" 
d="M162 -399h-97v195h97c25 0 46 9 64 27s27 39 27 64v803h-144v195h144v446h194v-446h698v-446c0 -81 -20 -154 -59 -220c-40 -67 -93 -120 -159 -159c-66 -40 -139 -60 -219 -60h-214v195h214c67 0 124 24 172 72c47 47 71 105 71 172v251h-504v-803
c0 -79 -28 -146 -83 -202c-56 -56 -123 -84 -202 -84z" />
    <glyph glyph-name="Eth" unicode="&#xd0;" horiz-adv-x="1455" 
d="M792 0h-219v206h219c72 0 138 18 197 54c59 35 107 83 143 143c35 59 53 125 53 198v524h-702v-388h213v-160h-213v-577h-205v577h-213v160h213v388h-167v206h1279v-730c0 -111 -27 -211 -81 -302s-126 -163 -216 -217c-91 -55 -191 -82 -301 -82z" />
    <glyph glyph-name="eth" unicode="&#xf0;" horiz-adv-x="1247" 
d="M739 0h-674v97c0 116 19 225 56 326s96 190 175 267h-229v195h739v82h-372v160h372v201h194v-201h182v-160h-182v-965h-194v688h-56c-61 0 -125 -17 -192 -50c-87 -44 -154 -104 -203 -181s-80 -165 -91 -264h475v-195z" />
    <glyph glyph-name="section" unicode="&#xa7;" horiz-adv-x="1093" 
d="M595 -308h-530v195h530c65 0 122 23 169 70s70 103 70 169v42h-766l1 726c0 80 20 153 59 219c39 65 91 118 156 157s138 58 217 58h527v-195h-527c-65 0 -121 -23 -168 -70s-70 -103 -70 -169v-66h765l-1 -466h1v-236c0 -79 -19 -152 -58 -217
c-39 -66 -92 -119 -157 -158s-138 -59 -218 -59zM834 362l1 272h-573v-272h572z" />
    <glyph glyph-name="dotlessi" unicode="&#x131;" horiz-adv-x="721" 
d="M656 0h-584v194h195v509c-45 -6 -90 -9 -137 -9h-65v183h92c109 0 191 32 244 95l57 72l141 -116l-57 -70c-21 -27 -48 -53 -81 -77v-587h195v-194z" />
    <glyph glyph-name="dieresis" unicode="&#xa8;" horiz-adv-x="696" 
d="M631 1133h-229v195h229v-195zM294 1133h-229v195h229v-195z" />
    <glyph glyph-name="periodcentered" unicode="&#xb7;" horiz-adv-x="359" 
d="M294 376h-229v195l229 -6v-189z" />
    <glyph glyph-name="copyright" unicode="&#xa9;" horiz-adv-x="1590" 
d="M854 -63h-118c-123 0 -236 31 -337 92s-182 142 -243 244s-91 215 -91 338c0 124 30 237 91 339s142 183 243 244s214 91 337 91h118c123 0 236 -30 338 -91c101 -61 182 -142 243 -244c60 -102 90 -215 90 -339c0 -123 -30 -236 -90 -338c-61 -102 -142 -183 -243 -244
c-102 -61 -215 -92 -338 -92zM1116 218h-341c-69 0 -132 17 -189 51s-103 80 -137 137s-51 121 -51 190v363h702v-183h-519v-180c0 -53 19 -99 57 -137c38 -39 84 -58 137 -58h341v-183zM854 63c100 0 191 25 274 75c83 49 149 116 198 199s74 174 74 274
c0 101 -25 193 -74 276s-115 149 -198 198s-174 74 -274 74h-118c-100 0 -191 -25 -274 -74s-149 -115 -198 -198s-74 -175 -74 -276c0 -100 25 -191 74 -274s115 -150 198 -199c83 -50 174 -75 274 -75h118z" />
    <glyph glyph-name="registered" unicode="&#xae;" horiz-adv-x="915" 
d="M489 536h-63c-66 0 -126 16 -181 49s-98 77 -131 132s-49 115 -49 182s16 128 49 183s76 98 131 131s115 49 181 49h63c66 0 127 -16 182 -49s98 -76 131 -131c32 -55 48 -116 48 -183s-16 -127 -48 -182c-33 -55 -76 -99 -131 -132s-116 -49 -182 -49zM644 699h-79v151
h-169v-151h-79v151h-46v80h46v76h-46v81h338v-105c0 -18 -4 -35 -11 -52h46v-231zM478 930c14 0 26 5 36 15s15 22 15 37v24h-133v-76h82zM489 616c77 0 144 28 199 84c55 55 83 122 83 199c0 78 -28 145 -83 200s-122 83 -199 83h-63c-77 0 -143 -28 -198 -83
s-83 -122 -83 -200c0 -77 28 -144 83 -199c55 -56 121 -84 198 -84h63z" />
    <glyph glyph-name="guillemotleft" unicode="&#xab;" horiz-adv-x="936" 
d="M502 56l-437 261l3 222l434 260v-174l-331 -198l331 -197v-174zM862 61l-428 256v221l437 261v-174l-331 -198l331 -197z" />
    <glyph glyph-name="guillemotright" unicode="&#xbb;" horiz-adv-x="936" 
d="M434 56v174l331 197l-331 198v174l437 -261v-221zM65 56v174l331 197l-331 198v174l438 -261v-221z" />
    <glyph glyph-name="degree" unicode="&#xb0;" horiz-adv-x="557" 
d="M365 920h-174c-35 0 -64 13 -89 38s-37 54 -37 89v138c0 35 12 65 37 90s54 37 89 37h174c35 0 65 -12 90 -37s37 -55 37 -90v-138c0 -35 -12 -64 -37 -89s-55 -38 -90 -38zM365 1046l1 1l-1 139h-174l-1 -1v-138l1 -1h174z" />
    <glyph glyph-name="ordmasculine" unicode="&#xba;" horiz-adv-x="669" 
d="M382 626h-94c-61 0 -114 22 -157 66c-44 43 -66 96 -66 158v211c0 62 22 115 66 159c43 43 96 65 157 65h94c61 0 114 -22 157 -65c43 -44 65 -97 65 -159v-211c0 -62 -22 -115 -65 -158c-43 -44 -96 -66 -157 -66zM382 752c27 0 50 10 69 29s28 42 28 69v211
c0 27 -9 51 -28 70s-42 28 -69 28h-94c-27 0 -50 -9 -69 -28s-29 -43 -29 -70v-211c0 -27 10 -50 29 -69s42 -29 69 -29h94z" />
    <glyph glyph-name="onesuperior" unicode="&#xb9;" horiz-adv-x="399" 
d="M334 627h-125v447c-16 -1 -64 -1 -144 -1v125h120c7 0 12 2 17 7s7 10 7 17v63h125v-658z" />
    <glyph glyph-name="twosuperior" unicode="&#xb2;" horiz-adv-x="640" 
d="M575 625h-508c-1 127 -1 194 -2 199c0 15 2 32 7 51c13 48 41 84 86 108c26 13 60 20 103 20h173v59c0 27 -9 50 -28 69s-42 28 -69 28l-244 6v120h244c61 0 114 -22 157 -65c43 -44 64 -97 64 -158v-184h-297c-27 0 -46 -4 -55 -13c-10 -9 -15 -26 -15 -49v-64h384v-127
z" />
    <glyph glyph-name="threesuperior" unicode="&#xb3;" horiz-adv-x="628" 
d="M342 626h-277v126h277c26 0 49 10 68 29s28 41 28 67v79l-241 1l1 124h113c31 0 54 11 71 32s25 46 25 75h-335v126h461v-136c0 -34 -7 -66 -22 -97h52v-204c0 -61 -22 -114 -65 -157s-95 -65 -156 -65z" />
    <glyph glyph-name="cedilla" unicode="&#xb8;" horiz-adv-x="550" 
d="M319 -355h-254v126h254c11 0 21 4 29 12s12 17 12 28v22h-122c-29 0 -53 10 -73 31c-20 20 -30 44 -30 73v124h125v-102h225v-148c0 -45 -16 -84 -48 -117c-33 -33 -72 -49 -118 -49z" />
    <glyph glyph-name="questiondown" unicode="&#xbf;" horiz-adv-x="1041" 
d="M976 -399h-479c-79 0 -152 20 -217 59s-117 92 -156 158c-39 65 -59 138 -59 217v297h455c9 0 18 3 25 10s10 15 10 25v202h194v-202c0 -63 -22 -117 -67 -162s-99 -68 -162 -68h-261v-102c0 -65 23 -121 70 -168s103 -71 168 -71l479 -6v-189zM766 726h-229v195h229
v-195z" />
    <glyph glyph-name="Agrave" unicode="&#xc0;" 
d="M1309 0h-205v502h-668v-502h-205v502h-164v200h164v423h-166v206h1244v-1331zM1104 702v423h-668v-423h668zM764 1445l-192 270l148 107l191 -270z" />
    <glyph glyph-name="Aacute" unicode="&#xc1;" 
d="M1309 0h-205v502h-668v-502h-205v502h-164v200h164v423h-166v206h1244v-1331zM1104 702v423h-668v-423h668zM752 1445l-148 107l192 270l147 -107z" />
    <glyph glyph-name="Acircumflex" unicode="&#xc2;" 
d="M1309 0h-205v502h-668v-502h-205v502h-164v200h164v423h-166v206h1244v-1331zM1104 702v423h-668v-423h668zM909 1445l-15 11c-47 31 -87 68 -121 111c-33 -43 -73 -80 -120 -111l-15 -11l-87 120c32 23 56 42 71 56c20 17 36 37 49 59c12 22 18 48 18 79v30h168v-30
c0 -31 6 -57 19 -79s30 -42 51 -60c21 -19 44 -37 69 -55z" />
    <glyph glyph-name="Atilde" unicode="&#xc3;" 
d="M1309 0h-205v502h-668v-502h-205v502h-164v200h164v423h-166v206h1244v-1331zM1104 702v423h-668v-423h668zM646 1463h-145v126c0 37 11 67 33 92c21 25 48 37 80 37c13 0 28 -3 43 -9l222 -85l-1 107h146l1 -65c0 -52 -4 -89 -12 -111c-11 -26 -26 -46 -47 -61
s-44 -23 -70 -23c-15 0 -31 3 -48 9l-202 78v-95z" />
    <glyph glyph-name="Adieresis" unicode="&#xc4;" 
d="M1309 0h-205v502h-668v-502h-205v502h-164v200h164v423h-166v206h1244v-1331zM1104 702v423h-668v-423h668zM1093 1445h-235v195h235v-195zM698 1445h-235v195h235v-195z" />
    <glyph glyph-name="Aring" unicode="&#xc5;" 
d="M1309 0h-205v502h-668v-502h-205v502h-164v200h164v423h-166v206h1244v-1331zM1104 702v423h-668v-423h668zM851 1409h-135c-31 0 -58 11 -80 33s-33 49 -33 80v107c0 31 11 58 33 80s49 33 80 33h135c31 0 58 -11 80 -33s33 -49 33 -80v-107c0 -31 -11 -58 -33 -80
s-49 -33 -80 -33zM839 1535v82h-111v-82h111z" />
    <glyph glyph-name="AE" unicode="&#xc6;" horiz-adv-x="2169" 
d="M2104 0h-437c-146 0 -277 50 -393 149v-149h-205v502h-607l-180 -502h-217l180 502h-116v200h188l226 629h1561v-206h-830v-344h751v-200h-751c5 -71 25 -134 61 -190c35 -56 82 -101 141 -134c58 -34 122 -51 191 -51h437v-206zM1069 702v423h-383l-152 -423h535z" />
    <glyph glyph-name="Ccedilla" unicode="&#xc7;" horiz-adv-x="1420" 
d="M916 -349h-255v126h255c11 0 20 4 28 12s12 17 12 28v22h-122c-28 0 -52 10 -72 31c-21 20 -31 44 -31 72v65c-98 15 -185 51 -261 107c-77 56 -137 126 -182 211s-67 177 -67 276v524h-156v206h1263v-206h-902v-524c0 -72 18 -138 53 -198s83 -108 143 -143
c59 -36 125 -54 197 -54h536v-206h-498v-35h224v-148c0 -45 -16 -84 -48 -117c-33 -33 -72 -49 -117 -49z" />
    <glyph glyph-name="Egrave" unicode="&#xc8;" horiz-adv-x="1324" 
d="M1259 0h-437c-107 0 -205 26 -294 78s-161 122 -215 209s-84 185 -89 294h-156v200h156v344h-159v206h1194v-206h-830v-344h751v-200h-750c4 -71 24 -134 60 -190c35 -56 82 -101 141 -134c58 -34 122 -51 191 -51h437v-206zM739 1445l-192 270l148 107l191 -270z" />
    <glyph glyph-name="Eacute" unicode="&#xc9;" horiz-adv-x="1324" 
d="M1259 0h-437c-107 0 -205 26 -294 78s-161 122 -215 209s-84 185 -89 294h-156v200h156v344h-159v206h1194v-206h-830v-344h751v-200h-750c4 -71 24 -134 60 -190c35 -56 82 -101 141 -134c58 -34 122 -51 191 -51h437v-206zM737 1445l-148 107l192 270l147 -107z" />
    <glyph glyph-name="Ecircumflex" unicode="&#xca;" horiz-adv-x="1324" 
d="M1259 0h-437c-107 0 -205 26 -294 78s-161 122 -215 209s-84 185 -89 294h-156v200h156v344h-159v206h1194v-206h-830v-344h751v-200h-750c4 -71 24 -134 60 -190c35 -56 82 -101 141 -134c58 -34 122 -51 191 -51h437v-206zM884 1445l-15 11c-47 31 -87 68 -121 111
c-33 -43 -73 -80 -120 -111l-15 -11l-87 120c32 23 56 42 71 56c20 17 36 37 49 59c12 22 18 48 18 79v30h168v-30c0 -31 6 -57 19 -79s30 -42 51 -60c21 -19 44 -37 69 -55z" />
    <glyph glyph-name="Edieresis" unicode="&#xcb;" horiz-adv-x="1324" 
d="M1259 0h-437c-107 0 -205 26 -294 78s-161 122 -215 209s-84 185 -89 294h-156v200h156v344h-159v206h1194v-206h-830v-344h751v-200h-750c4 -71 24 -134 60 -190c35 -56 82 -101 141 -134c58 -34 122 -51 191 -51h437v-206zM1063 1445h-235v195h235v-195zM668 1445h-235
v195h235v-195z" />
    <glyph glyph-name="Igrave" unicode="&#xcc;" horiz-adv-x="955" 
d="M890 0h-825v206h310v919h-310v206h825v-206h-310v-919h310v-206zM479 1445l-192 270l148 107l191 -270z" />
    <glyph glyph-name="Iacute" unicode="&#xcd;" horiz-adv-x="955" 
d="M890 0h-825v206h310v919h-310v206h825v-206h-310v-919h310v-206zM513 1445l-148 107l192 270l147 -107z" />
    <glyph glyph-name="Icircumflex" unicode="&#xce;" horiz-adv-x="955" 
d="M890 0h-825v206h310v919h-310v206h825v-206h-310v-919h310v-206zM614 1445l-15 11c-47 31 -87 68 -121 111c-33 -43 -73 -80 -120 -111l-15 -11l-87 120c32 23 56 42 71 56c20 17 36 37 49 59c12 22 18 48 18 79v30h168v-30c0 -31 6 -57 19 -79s30 -42 51 -60
c21 -19 44 -37 69 -55z" />
    <glyph glyph-name="Idieresis" unicode="&#xcf;" horiz-adv-x="955" 
d="M890 0h-825v206h310v919h-310v206h825v-206h-310v-919h310v-206zM793 1445h-235v195h235v-195zM398 1445h-235v195h235v-195z" />
    <glyph glyph-name="Ntilde" unicode="&#xd1;" horiz-adv-x="1445" 
d="M148 -282l-118 169l84 59c23 16 44 33 62 51c17 18 31 41 42 68c10 27 15 64 15 109v951h-167v206h541l567 -677l6 677h200v-1331h-206v336l-661 789h-75v-951c0 -145 -46 -259 -139 -343c-23 -21 -45 -38 -68 -53zM728 1463h-145v126c0 37 11 67 33 92
c21 25 48 37 80 37c13 0 28 -3 43 -9l222 -85l-1 107h146l1 -65c0 -52 -4 -89 -12 -111c-11 -26 -26 -46 -47 -61s-44 -23 -70 -23c-15 0 -31 3 -48 9l-202 78v-95z" />
    <glyph glyph-name="Ograve" unicode="&#xd2;" horiz-adv-x="1340" 
d="M801 562h-262v206l262 -5v-201zM1275 0h-1210v1331h1210v-1331zM1070 206v919h-800v-919h800zM636 1445l-192 270l148 107l191 -270z" />
    <glyph glyph-name="Oacute" unicode="&#xd3;" horiz-adv-x="1340" 
d="M801 562h-262v206l262 -5v-201zM1275 0h-1210v1331h1210v-1331zM1070 206v919h-800v-919h800zM705 1445l-148 107l192 270l147 -107z" />
    <glyph glyph-name="Ocircumflex" unicode="&#xd4;" horiz-adv-x="1340" 
d="M801 562h-262v206l262 -5v-201zM1275 0h-1210v1331h1210v-1331zM1070 206v919h-800v-919h800zM806 1445l-15 11c-47 31 -87 68 -121 111c-33 -43 -73 -80 -120 -111l-15 -11l-87 120c32 23 56 42 71 56c20 17 36 37 49 59c12 22 18 48 18 79v30h168v-30
c0 -31 6 -57 19 -79s30 -42 51 -60c21 -19 44 -37 69 -55z" />
    <glyph glyph-name="Otilde" unicode="&#xd5;" horiz-adv-x="1340" 
d="M801 562h-262v206l262 -5v-201zM1275 0h-1210v1331h1210v-1331zM1070 206v919h-800v-919h800zM553 1463h-145v126c0 37 11 67 33 92c21 25 48 37 80 37c13 0 28 -3 43 -9l222 -85l-1 107h146l1 -65c0 -52 -4 -89 -12 -111c-11 -26 -26 -46 -47 -61s-44 -23 -70 -23
c-15 0 -31 3 -48 9l-202 78v-95z" />
    <glyph glyph-name="Odieresis" unicode="&#xd6;" horiz-adv-x="1340" 
d="M801 562h-262v206l262 -5v-201zM1275 0h-1210v1331h1210v-1331zM1070 206v919h-800v-919h800zM985 1445h-235v195h235v-195zM590 1445h-235v195h235v-195z" />
    <glyph glyph-name="Oslash" unicode="&#xd8;" horiz-adv-x="1340" 
d="M371 -48h-189l27 48h-144v1331h878l27 48h188l-26 -48h143v-1331h-878zM1070 206v919h-52l-507 -919h559zM323 206l506 919h-559v-919h53z" />
    <glyph glyph-name="OE" unicode="&#x152;" horiz-adv-x="2170" 
d="M2105 0h-437c-146 0 -277 50 -393 149v-149h-1210v1331h2040v-206h-830v-344h751v-200h-750c4 -71 24 -134 60 -190c35 -56 82 -101 141 -134c58 -34 122 -51 191 -51h437v-206zM1070 206v919h-800v-919h800zM801 563h-262v206h262v-206z" />
    <glyph glyph-name="Ugrave" unicode="&#xd9;" horiz-adv-x="1513" 
d="M1448 0l-1383 6v200h135v1125h205v-1125h703v1125h205v-1125h135v-206zM723 1445l-192 270l148 107l191 -270z" />
    <glyph glyph-name="Uacute" unicode="&#xda;" horiz-adv-x="1513" 
d="M1448 0l-1383 6v200h135v1125h205v-1125h703v1125h205v-1125h135v-206zM792 1445l-148 107l192 270l147 -107z" />
    <glyph glyph-name="Ucircumflex" unicode="&#xdb;" horiz-adv-x="1513" 
d="M1448 0l-1383 6v200h135v1125h205v-1125h703v1125h205v-1125h135v-206zM893 1445l-15 11c-47 31 -87 68 -121 111c-33 -43 -73 -80 -120 -111l-15 -11l-87 120c32 23 56 42 71 56c20 17 36 37 49 59c12 22 18 48 18 79v30h168v-30c0 -31 6 -57 19 -79s30 -42 51 -60
c21 -19 44 -37 69 -55z" />
    <glyph glyph-name="Udieresis" unicode="&#xdc;" horiz-adv-x="1513" 
d="M1448 0l-1383 6v200h135v1125h205v-1125h703v1125h205v-1125h135v-206zM1072 1445h-235v195h235v-195zM677 1445h-235v195h235v-195z" />
    <glyph glyph-name="Yacute" unicode="&#xdd;" horiz-adv-x="1222" 
d="M708 0h-200v443c-85 0 -160 21 -227 62s-120 95 -158 162c-39 67 -58 139 -58 217v446h194v-446c0 -69 24 -128 73 -175s107 -71 176 -71v190h206v-190c71 0 131 24 178 73s71 106 71 173v446h194v-446c0 -82 -20 -156 -60 -223s-93 -120 -160 -159s-142 -59 -223 -59z
M646 1445l-148 107l192 270l147 -107z" />
    <glyph glyph-name="Ydieresis" unicode="&#x178;" horiz-adv-x="1222" 
d="M708 0h-200v443c-85 0 -160 21 -227 62s-120 95 -158 162c-39 67 -58 139 -58 217v446h194v-446c0 -69 24 -128 73 -175s107 -71 176 -71v190h206v-190c71 0 131 24 178 73s71 106 71 173v446h194v-446c0 -82 -20 -156 -60 -223s-93 -120 -160 -159s-142 -59 -223 -59z
M926 1445h-235v195h235v-195zM531 1445h-235v195h235v-195z" />
    <glyph glyph-name="Zcaron" unicode="&#x17d;" horiz-adv-x="1292" 
d="M1227 0h-1162v188l379 444l-59 1h-81v200h69c38 0 75 -1 111 -3c35 -3 73 -9 113 -19l268 314h-743v205h1044v-169l-374 -437c31 -23 59 -47 83 -72c23 -26 46 -53 67 -81l19 -24l-153 -127l-24 30c-33 47 -74 88 -122 121l-312 -365h877v-206zM730 1445h-168v30
c0 31 -6 57 -18 79c-13 22 -29 42 -49 59c-15 14 -39 33 -71 56l87 120l15 -11c47 -31 87 -68 120 -111c34 43 74 80 121 111l15 11l87 -120c-25 -18 -48 -36 -69 -54c-21 -19 -38 -39 -51 -61s-19 -48 -19 -79v-30z" />
    <glyph glyph-name="Scaron" unicode="&#x160;" 
d="M1023 0h-958v207h958c22 0 41 8 57 24c15 16 23 35 23 57v293h-1035v200h116c33 0 62 12 86 36c23 24 35 53 35 86v524h207v-97h749v-206h-749v-216c0 -45 -9 -87 -26 -127h823v-493c0 -79 -28 -147 -84 -203c-56 -57 -123 -85 -202 -85zM877 1445h-168v30
c0 31 -6 57 -18 79c-13 22 -29 42 -49 59c-15 14 -39 33 -71 56l87 120l15 -11c47 -31 87 -68 120 -111c34 43 74 80 121 111l15 11l87 -120c-25 -18 -48 -36 -69 -54c-21 -19 -38 -39 -51 -61s-19 -48 -19 -79v-30z" />
    <glyph glyph-name="agrave" unicode="&#xe0;" horiz-adv-x="1021" 
d="M956 0h-193v392h-418c-24 0 -44 -8 -61 -25s-26 -38 -26 -62v-110h433v-195h-626v305c0 77 27 144 82 199s121 82 198 82h418v105h-648v193h841v-884zM502 990l-192 270l148 107l191 -270z" />
    <glyph glyph-name="aacute" unicode="&#xe1;" horiz-adv-x="1021" 
d="M956 0h-193v392h-418c-24 0 -44 -8 -61 -25s-26 -38 -26 -62v-110h433v-195h-626v305c0 77 27 144 82 199s121 82 198 82h418v105h-648v193h841v-884zM571 990l-148 107l192 270l147 -107z" />
    <glyph glyph-name="acircumflex" unicode="&#xe2;" horiz-adv-x="1021" 
d="M956 0h-193v392h-418c-24 0 -44 -8 -61 -25s-26 -38 -26 -62v-110h433v-195h-626v305c0 77 27 144 82 199s121 82 198 82h418v105h-648v193h841v-884zM672 990l-15 11c-47 31 -87 68 -121 111c-33 -43 -73 -80 -120 -111l-15 -11l-87 120c32 23 56 42 71 56
c20 17 36 37 49 59c12 22 18 48 18 79v30h168v-30c0 -31 6 -57 19 -79s30 -42 51 -60c21 -19 44 -37 69 -55z" />
    <glyph glyph-name="atilde" unicode="&#xe3;" horiz-adv-x="1021" 
d="M956 0h-193v392h-418c-24 0 -44 -8 -61 -25s-26 -38 -26 -62v-110h433v-195h-626v305c0 77 27 144 82 199s121 82 198 82h418v105h-648v193h841v-884zM419 1008h-145v126c0 37 11 67 33 92c21 25 48 37 80 37c13 0 28 -3 43 -9l222 -85l-1 107h146l1 -65
c0 -52 -4 -89 -12 -111c-11 -26 -26 -46 -47 -61s-44 -23 -70 -23c-15 0 -31 3 -48 9l-202 78v-95z" />
    <glyph glyph-name="adieresis" unicode="&#xe4;" horiz-adv-x="1021" 
d="M956 0h-193v392h-418c-24 0 -44 -8 -61 -25s-26 -38 -26 -62v-110h433v-195h-626v305c0 77 27 144 82 199s121 82 198 82h418v105h-648v193h841v-884zM851 990h-235v195h235v-195zM456 990h-235v195h235v-195z" />
    <glyph glyph-name="aring" unicode="&#xe5;" horiz-adv-x="1021" 
d="M956 0h-193v392h-418c-24 0 -44 -8 -61 -25s-26 -38 -26 -62v-110h433v-195h-626v305c0 77 27 144 82 199s121 82 198 82h418v105h-648v193h841v-884zM604 954h-135c-31 0 -58 11 -80 33s-33 49 -33 80v107c0 31 11 58 33 80s49 33 80 33h135c31 0 58 -11 80 -33
s33 -49 33 -80v-107c0 -31 -11 -58 -33 -80s-49 -33 -80 -33zM592 1080v82h-111v-82h111z" />
    <glyph glyph-name="ae" unicode="&#xe6;" horiz-adv-x="1720" 
d="M1619 0h-419c-82 0 -152 17 -211 51s-108 81 -145 140s-64 126 -80 203h-419c-23 0 -43 -8 -60 -25s-26 -38 -26 -62v-112h432v-195h-626v307c0 77 27 144 82 199s121 82 198 82h418v103h-647v193l1539 1v-259c0 -77 -27 -143 -82 -198s-121 -83 -198 -83h-290v195h290
c23 0 44 9 61 26s25 37 25 60v64h-504v-251c0 -67 24 -125 72 -172c47 -48 104 -72 171 -72h419v-195z" />
    <glyph glyph-name="ccedilla" unicode="&#xe7;" horiz-adv-x="1039" 
d="M651 -355h-254v126h254c11 0 21 4 29 12s12 18 12 29v21h-122c-29 0 -53 10 -73 31c-20 20 -30 44 -30 73v65c-76 7 -144 30 -204 71c-61 40 -109 92 -144 156c-36 64 -54 134 -54 210v446h891v-195h-698v-251c0 -67 24 -125 72 -172c47 -48 104 -72 171 -72l473 -6v-189
h-382v-41h225v-147c0 -46 -16 -85 -48 -118c-33 -33 -72 -49 -118 -49zM726 345h-229v195l229 -6v-189z" />
    <glyph glyph-name="egrave" unicode="&#xe8;" horiz-adv-x="1022" 
d="M921 0h-419c-80 0 -153 20 -219 60c-67 39 -120 92 -159 159c-39 66 -59 139 -59 220v446h892v-259c0 -77 -27 -143 -82 -198s-121 -83 -198 -83h-320v195h320c23 0 44 9 61 26s25 37 25 60v64h-504v-251c0 -67 24 -125 72 -172c47 -48 104 -72 171 -72h419v-195z
M477 990l-192 270l148 107l191 -270z" />
    <glyph glyph-name="eacute" unicode="&#xe9;" horiz-adv-x="1022" 
d="M921 0h-419c-80 0 -153 20 -219 60c-67 39 -120 92 -159 159c-39 66 -59 139 -59 220v446h892v-259c0 -77 -27 -143 -82 -198s-121 -83 -198 -83h-320v195h320c23 0 44 9 61 26s25 37 25 60v64h-504v-251c0 -67 24 -125 72 -172c47 -48 104 -72 171 -72h419v-195z
M546 990l-148 107l192 270l147 -107z" />
    <glyph glyph-name="ecircumflex" unicode="&#xea;" horiz-adv-x="1022" 
d="M921 0h-419c-80 0 -153 20 -219 60c-67 39 -120 92 -159 159c-39 66 -59 139 -59 220v446h892v-259c0 -77 -27 -143 -82 -198s-121 -83 -198 -83h-320v195h320c23 0 44 9 61 26s25 37 25 60v64h-504v-251c0 -67 24 -125 72 -172c47 -48 104 -72 171 -72h419v-195z
M647 990l-15 11c-47 31 -87 68 -121 111c-33 -43 -73 -80 -120 -111l-15 -11l-87 120c32 23 56 42 71 56c20 17 36 37 49 59c12 22 18 48 18 79v30h168v-30c0 -31 6 -57 19 -79s30 -42 51 -60c21 -19 44 -37 69 -55z" />
    <glyph glyph-name="edieresis" unicode="&#xeb;" horiz-adv-x="1022" 
d="M921 0h-419c-80 0 -153 20 -219 60c-67 39 -120 92 -159 159c-39 66 -59 139 -59 220v446h892v-259c0 -77 -27 -143 -82 -198s-121 -83 -198 -83h-320v195h320c23 0 44 9 61 26s25 37 25 60v64h-504v-251c0 -67 24 -125 72 -172c47 -48 104 -72 171 -72h419v-195z
M826 990h-235v195h235v-195zM431 990h-235v195h235v-195z" />
    <glyph glyph-name="igrave" unicode="&#xec;" horiz-adv-x="721" 
d="M656 0h-584v194h195v509c-45 -6 -90 -9 -137 -9h-65v183h92c109 0 191 32 244 95l57 72l141 -116l-57 -70c-21 -27 -48 -53 -81 -77v-587h195v-194zM262 1000l-192 270l148 107l191 -270z" />
    <glyph glyph-name="iacute" unicode="&#xed;" horiz-adv-x="721" 
d="M656 0h-584v194h195v509c-45 -6 -90 -9 -137 -9h-65v183h92c109 0 191 32 244 95l57 72l141 -116l-57 -70c-21 -27 -48 -53 -81 -77v-587h195v-194zM230 998l-148 107l192 270l147 -107z" />
    <glyph glyph-name="icircumflex" unicode="&#xee;" horiz-adv-x="721" 
d="M656 0h-584v194h195v509c-45 -6 -90 -9 -137 -9h-65v183h92c109 0 191 32 244 95l57 72l141 -116l-57 -70c-21 -27 -48 -53 -81 -77v-587h195v-194zM502 1070l-15 11c-47 31 -87 68 -121 111c-33 -43 -73 -80 -120 -111l-15 -11l-87 120c32 23 56 42 71 56
c20 17 36 37 49 59c12 22 18 48 18 79v30h168v-30c0 -31 6 -57 19 -79s30 -42 51 -60c21 -19 44 -37 69 -55z" />
    <glyph glyph-name="idieresis" unicode="&#xef;" horiz-adv-x="721" 
d="M656 0h-584v194h195v509c-45 -6 -90 -9 -137 -9h-65v183h92c109 0 191 32 244 95l57 72l141 -116l-57 -70c-21 -27 -48 -53 -81 -77v-587h195v-194zM671 1150h-235v195h235v-195zM276 1150h-235v195h235v-195z" />
    <glyph glyph-name="ntilde" unicode="&#xf1;" horiz-adv-x="1209" 
d="M1144 0h-193v690h-505v-404c0 -79 -28 -146 -83 -202c-56 -56 -123 -84 -201 -84h-97v195h97c25 0 46 9 64 27s27 39 27 64v404h-188v194h188v109h193v-109h698v-884zM573 1040h-145v126c0 37 11 67 33 92c21 25 48 37 80 37c13 0 28 -3 43 -9l222 -85l-1 107h146l1 -65
c0 -52 -4 -89 -12 -111c-11 -26 -26 -46 -47 -61s-44 -23 -70 -23c-15 0 -31 3 -48 9l-202 78v-95z" />
    <glyph glyph-name="ograve" unicode="&#xf2;" horiz-adv-x="1057" 
d="M643 345h-229v195h229v-195zM992 0h-927v884h927v-884zM798 195v495h-540v-495h540zM494 990l-192 270l148 107l191 -270z" />
    <glyph glyph-name="oacute" unicode="&#xf3;" horiz-adv-x="1057" 
d="M643 345h-229v195h229v-195zM992 0h-927v884h927v-884zM798 195v495h-540v-495h540zM563 990l-148 107l192 270l147 -107z" />
    <glyph glyph-name="ocircumflex" unicode="&#xf4;" horiz-adv-x="1057" 
d="M643 345h-229v195h229v-195zM992 0h-927v884h927v-884zM798 195v495h-540v-495h540zM664 990l-15 11c-47 31 -87 68 -121 111c-33 -43 -73 -80 -120 -111l-15 -11l-87 120c32 23 56 42 71 56c20 17 36 37 49 59c12 22 18 48 18 79v30h168v-30c0 -31 6 -57 19 -79
s30 -42 51 -60c21 -19 44 -37 69 -55z" />
    <glyph glyph-name="otilde" unicode="&#xf5;" horiz-adv-x="1057" 
d="M643 345h-229v195h229v-195zM992 0h-927v884h927v-884zM798 195v495h-540v-495h540zM411 1008h-145v126c0 37 11 67 33 92c21 25 48 37 80 37c13 0 28 -3 43 -9l222 -85l-1 107h146l1 -65c0 -52 -4 -89 -12 -111c-11 -26 -26 -46 -47 -61s-44 -23 -70 -23
c-15 0 -31 3 -48 9l-202 78v-95z" />
    <glyph glyph-name="odieresis" unicode="&#xf6;" horiz-adv-x="1057" 
d="M643 345h-229v195h229v-195zM992 0h-927v884h927v-884zM798 195v495h-540v-495h540zM843 1003h-235v195h235v-195zM448 1003h-235v195h235v-195z" />
    <glyph glyph-name="oslash" unicode="&#xf8;" horiz-adv-x="1058" 
d="M286 -172h-189l95 172h-127v885h613l95 172h188l-95 -172h127v-885h-613zM799 195v495h-40l-272 -495h312zM299 195l272 495h-312v-495h40z" />
    <glyph glyph-name="oe" unicode="&#x153;" horiz-adv-x="1755" 
d="M643 345h-229v195c76 0 152 -2 229 -6v-189zM1654 0h-419c-87 0 -168 25 -243 75v-75h-927v885l1625 -6v-253c0 -77 -27 -143 -82 -198s-121 -83 -198 -83h-290v195h290c23 0 44 9 61 26s25 37 25 60v64h-504v-251c0 -67 24 -125 72 -172c47 -48 104 -72 171 -72h419
v-195zM798 195v495h-540v-495h540z" />
    <glyph glyph-name="ugrave" unicode="&#xf9;" horiz-adv-x="1218" 
d="M1117 0h-1052v884h193v-689h501v353c0 143 46 255 137 338c34 29 73 59 116 88l30 21l111 -159l-79 -56c-23 -16 -44 -33 -62 -51c-18 -19 -32 -42 -43 -70s-16 -65 -16 -111v-353h164v-195zM535 975l-192 270l148 107l191 -270z" />
    <glyph glyph-name="uacute" unicode="&#xfa;" horiz-adv-x="1218" 
d="M1117 0h-1052v884h193v-689h501v353c0 143 46 255 137 338c34 29 73 59 116 88l30 21l111 -159l-79 -56c-23 -16 -44 -33 -62 -51c-18 -19 -32 -42 -43 -70s-16 -65 -16 -111v-353h164v-195zM568 980l-148 107l192 270l147 -107z" />
    <glyph glyph-name="ucircumflex" unicode="&#xfb;" horiz-adv-x="1218" 
d="M1117 0h-1052v884h193v-689h501v353c0 143 46 255 137 338c34 29 73 59 116 88l30 21l111 -159l-79 -56c-23 -16 -44 -33 -62 -51c-18 -19 -32 -42 -43 -70s-16 -65 -16 -111v-353h164v-195zM680 1005l-15 11c-47 31 -87 68 -121 111c-33 -43 -73 -80 -120 -111l-15 -11
l-87 120c32 23 56 42 71 56c20 17 36 37 49 59c12 22 18 48 18 79v30h168v-30c0 -31 6 -57 19 -79s30 -42 51 -60c21 -19 44 -37 69 -55z" />
    <glyph glyph-name="udieresis" unicode="&#xfc;" horiz-adv-x="1218" 
d="M1117 0h-1052v884h193v-689h501v353c0 143 46 255 137 338c34 29 73 59 116 88l30 21l111 -159l-79 -56c-23 -16 -44 -33 -62 -51c-18 -19 -32 -42 -43 -70s-16 -65 -16 -111v-353h164v-195zM853 1020h-235v195h235v-195zM458 1020h-235v195h235v-195z" />
    <glyph glyph-name="yacute" unicode="&#xfd;" horiz-adv-x="1120" 
d="M657 -435h-194v435h-398v884h194v-689h204v200h194v-200h129c21 0 38 8 53 23s22 32 22 53v613h194v-613c0 -75 -26 -138 -79 -191s-116 -80 -190 -80h-129v-435zM565 960l-148 107l192 270l147 -107z" />
    <glyph glyph-name="ydieresis" unicode="&#xff;" horiz-adv-x="1120" 
d="M657 -435h-194v435h-398v884h194v-689h204v200h194v-200h129c21 0 38 8 53 23s22 32 22 53v613h194v-613c0 -75 -26 -138 -79 -191s-116 -80 -190 -80h-129v-435zM875 1002h-235v195h235v-195zM480 1002h-235v195h235v-195z" />
    <glyph glyph-name="scaron" unicode="&#x161;" horiz-adv-x="1124" 
d="M790 1c-242 0 -484 2 -725 5v189h725c21 0 39 8 54 23s22 32 22 53v75h-801v195h134c25 0 47 9 65 27s27 39 27 64v361h193v-108h530v-195h-530l1 -45c0 -35 -5 -69 -16 -104h590v-270c0 -75 -26 -138 -79 -191s-116 -79 -190 -79zM727 1018h-168v30c0 31 -6 57 -18 79
c-13 22 -29 42 -49 59c-15 14 -39 33 -71 56l87 120l15 -11c47 -31 87 -68 120 -111c34 43 74 80 121 111l15 11l87 -120c-25 -18 -48 -36 -69 -54c-21 -19 -38 -39 -51 -61s-19 -48 -19 -79v-30z" />
    <glyph glyph-name="zcaron" unicode="&#x17e;" horiz-adv-x="1124" 
d="M1059 0h-994v181l658 510h-627v193h926v-207l-623 -482h660v-195zM646 990h-168v30c0 31 -6 57 -18 79c-13 22 -29 42 -49 59c-15 14 -39 33 -71 56l87 120l15 -11c47 -31 87 -68 120 -111c34 43 74 80 121 111l15 11l87 -120c-25 -18 -48 -36 -69 -54
c-21 -19 -38 -39 -51 -61s-19 -48 -19 -79v-30z" />
    <glyph glyph-name="gravecomb" unicode="&#x300;" horiz-adv-x="469" 
d="M257 990l-192 270l148 107l191 -270z" />
    <glyph glyph-name="acutecomb" unicode="&#x301;" horiz-adv-x="469" 
d="M213 990l-148 107l192 270l147 -107z" />
    <glyph glyph-name="uni0302" unicode="&#x302;" horiz-adv-x="575" 
d="M423 990l-15 11c-47 31 -87 68 -121 111c-33 -43 -73 -80 -120 -111l-15 -11l-87 120c32 23 56 42 71 56c20 17 36 37 49 59c12 22 18 48 18 79v30h168v-30c0 -31 6 -57 19 -79s30 -42 51 -60c21 -19 44 -37 69 -55z" />
    <glyph glyph-name="uni030C" unicode="&#x30c;" horiz-adv-x="575" 
d="M371 990h-168v30c0 31 -6 57 -18 79c-13 22 -29 42 -49 59c-15 14 -39 33 -71 56l87 120l15 -11c47 -31 87 -68 120 -111c34 43 74 80 121 111l15 11l87 -120c-25 -18 -48 -36 -69 -54c-21 -19 -38 -39 -51 -61s-19 -48 -19 -79v-30z" />
    <glyph glyph-name="tildecomb" unicode="&#x303;" horiz-adv-x="654" 
d="M210 1008h-145v126c0 37 11 67 33 92c21 25 48 37 80 37c13 0 28 -3 43 -9l222 -85l-1 107h146l1 -65c0 -52 -4 -89 -12 -111c-11 -26 -26 -46 -47 -61s-44 -23 -70 -23c-15 0 -31 3 -48 9l-202 78v-95z" />
    <glyph glyph-name="uni0304" unicode="&#x304;" horiz-adv-x="691" 
d="M626 996h-561v183l561 -6v-177z" />
    <glyph glyph-name="uni0307" unicode="&#x307;" horiz-adv-x="365" 
d="M300 990h-235v195h235v-195z" />
    <glyph glyph-name="uni0308" unicode="&#x308;" horiz-adv-x="760" 
d="M695 990h-235v195h235v-195zM300 990h-235v195h235v-195z" />
    <glyph glyph-name="uni030A" unicode="&#x30a;" horiz-adv-x="491" 
d="M313 954h-135c-31 0 -58 11 -80 33s-33 49 -33 80v107c0 31 11 58 33 80s49 33 80 33h135c31 0 58 -11 80 -33s33 -49 33 -80v-107c0 -31 -11 -58 -33 -80s-49 -33 -80 -33zM301 1080v82h-111v-82h111z" />
    <glyph glyph-name="uni0327" unicode="&#x327;" horiz-adv-x="550" 
d="M319 -355h-254v126h254c11 0 21 4 29 12c7 8 11 18 11 29v21h-121c-29 0 -53 10 -73 31c-21 20 -31 44 -31 73v124h126v-102h225v-147c0 -46 -16 -85 -49 -118s-72 -49 -117 -49z" />
    <glyph glyph-name="endash" unicode="&#x2013;" horiz-adv-x="734" 
d="M669 382h-604v183h604v-183z" />
    <glyph glyph-name="emdash" unicode="&#x2014;" horiz-adv-x="944" 
d="M879 382h-814v183h814v-183z" />
    <glyph glyph-name="quoteleft" unicode="&#x2018;" horiz-adv-x="386" 
d="M321 926h-256v206c0 98 51 176 152 234l74 -98c-25 -13 -47 -30 -65 -51c-19 -22 -28 -44 -28 -66v-31h123v-194z" />
    <glyph glyph-name="quoteright" unicode="&#x2019;" horiz-adv-x="386" 
d="M169 924l-74 98c25 13 47 30 66 52c18 22 27 44 27 65v31h-123v194h256v-206c0 -98 -51 -176 -152 -234z" />
    <glyph glyph-name="quotesinglbase" unicode="&#x201a;" horiz-adv-x="386" 
d="M168 -245l-73 98c25 12 47 29 66 51c18 22 27 44 27 65v32h-123v194l256 -6v-200c0 -98 -51 -176 -153 -234z" />
    <glyph glyph-name="quotedblleft" unicode="&#x201c;" horiz-adv-x="754" 
d="M321 926h-256v206c0 98 51 176 153 234l73 -98c-25 -13 -47 -30 -65 -51c-19 -22 -28 -44 -28 -66v-31h123v-194zM689 926h-256v206c0 98 51 176 153 234l73 -98c-25 -13 -47 -30 -65 -51c-19 -22 -28 -44 -28 -66v-31h123v-194z" />
    <glyph glyph-name="quotedblright" unicode="&#x201d;" horiz-adv-x="754" 
d="M537 924l-74 98c25 13 47 30 66 52c18 21 27 43 27 65v31h-123v194h256v-206c0 -98 -51 -176 -152 -234zM169 924l-73 98c25 13 46 30 65 52c18 21 27 43 27 65v31h-123v194h256v-206c0 -98 -51 -176 -152 -234z" />
    <glyph glyph-name="quotedblbase" unicode="&#x201e;" horiz-adv-x="754" 
d="M536 -245l-73 98c25 12 47 29 66 51c18 22 27 44 27 65v32h-123v194l256 -6v-200c0 -98 -51 -176 -153 -234zM169 -245l-74 98c25 12 47 29 66 51c18 22 27 44 27 65v32h-123v194l256 -6v-200c0 -98 -51 -176 -152 -234z" />
    <glyph glyph-name="dagger" unicode="&#x2020;" horiz-adv-x="733" 
d="M458 -193h-183v889h-210v183h210v435h183v-435h210v-183h-210v-889z" />
    <glyph glyph-name="bullet" unicode="&#x2022;" horiz-adv-x="438" 
d="M373 325h-308v298l308 -6v-292z" />
    <glyph glyph-name="guilsinglleft" unicode="&#x2039;" horiz-adv-x="648" 
d="M446 151l-381 391l381 382l137 -137l-249 -249l249 -249z" />
    <glyph glyph-name="guilsinglright" unicode="&#x203a;" horiz-adv-x="651" 
d="M201 151l-136 138l248 249l-248 249l140 133l381 -382z" />
    <glyph glyph-name="fraction" unicode="&#x2044;" horiz-adv-x="1065" 
d="M268 -2h-203l732 1333h203z" />
    <glyph glyph-name="fraction" unicode="&#x2215;" horiz-adv-x="1065" 
d="M268 -2h-203l732 1333h203z" />
    <glyph glyph-name="minus" unicode="&#x2212;" horiz-adv-x="733" 
d="M668 382h-603v183h603v-183z" />
    <glyph glyph-name="divide" unicode="&#xf7;" horiz-adv-x="852" 
d="M787 513h-722v183h722v-183zM540 236h-228v195l228 -6v-189zM540 779h-228v194h228v-194z" />
    <glyph glyph-name="multiply" unicode="&#xd7;" horiz-adv-x="770" 
d="M576 283l-195 196l-187 -188l-121 122l187 187l-195 196l129 130l195 -196l187 188l121 -122l-187 -187l195 -196z" />
    <glyph glyph-name="lessequal" unicode="&#x2264;" horiz-adv-x="853" 
d="M788 108h-723v184h723v-184zM786 362l-719 291l3 250l716 290v-193l-549 -223l549 -222v-193z" />
    <glyph glyph-name="greaterequal" unicode="&#x2265;" horiz-adv-x="853" 
d="M67 362v193l549 222l-549 223v193l719 -291v-249zM788 108h-723v184h723v-184z" />
    </font>
</defs>
</svg>
